<svg xmlns="http://www.w3.org/2000/svg" viewBox="0 0 12.64 14.87"><defs><style>.cls-1{fill:#fff;}</style></defs><title>消息</title><g id="图层_2" data-name="图层 2"><g id="图层_1-2" data-name="图层 1"><path class="cls-1" d="M11.9,10.78a.66.66,0,0,1,.39.11,1.67,1.67,0,0,1-.77-1.41V6.17A5.1,5.1,0,0,0,7.44,1.23V1.11a1.11,1.11,0,1,0-2.23,0v.12A5.09,5.09,0,0,0,1.11,6.17V9.48a1.67,1.67,0,0,1-.77,1.41.65.65,0,0,1,.39-.11.74.74,0,0,0,0,1.49H11.9a.74.74,0,0,0,0-1.49ZM6.32,14.87A1.86,1.86,0,0,0,8.18,13H4.46a1.86,1.86,0,0,0,1.86,1.86Zm0,0"/></g></g></svg>