<svg xmlns="http://www.w3.org/2000/svg" xmlns:xlink="http://www.w3.org/1999/xlink" viewBox="0 0 14.16 14.84"><defs><style>.cls-1{fill:none;}.cls-2{clip-path:url(#clip-path);}.cls-3{fill:#fff;}</style><clipPath id="clip-path" transform="translate(0 -0.01)"><rect class="cls-1" width="14.17" height="14.87"/></clipPath></defs><title>设置</title><g id="图层_2" data-name="图层 2"><g id="图层_1-2" data-name="图层 1"><g class="cls-2"><path class="cls-3" d="M13.79,9.16,12.62,8a5.34,5.34,0,0,0,0-.54,5.4,5.4,0,0,0,0-.54l1.17-1.19a.74.74,0,0,0,.27-1L12.95,2.75a.74.74,0,0,0-1-.27l-1.62.42a5.59,5.59,0,0,0-.93-.54L8.93.75A.74.74,0,0,0,8.19,0H6a.74.74,0,0,0-.74.74L4.77,2.36a5.57,5.57,0,0,0-.93.54L2.22,2.48a.74.74,0,0,0-1,.27L.1,4.68a.74.74,0,0,0,.27,1L1.54,6.89a5.34,5.34,0,0,0,0,.54c0,.18,0,.36,0,.54L.37,9.16a.74.74,0,0,0-.27,1L1.21,12.1a.74.74,0,0,0,1,.27L3.84,12a5.59,5.59,0,0,0,.93.54l.45,1.61a.74.74,0,0,0,.74.74H8.19a.74.74,0,0,0,.74-.74l.45-1.61a5.56,5.56,0,0,0,.93-.54l1.62.42a.74.74,0,0,0,1-.27l1.11-1.93a.75.75,0,0,0-.27-1ZM7.08,10a2.6,2.6,0,1,1,2.6-2.6A2.6,2.6,0,0,1,7.08,10Zm0,0" transform="translate(0 -0.01)"/></g></g></g></svg>