<svg xmlns="http://www.w3.org/2000/svg" xmlns:xlink="http://www.w3.org/1999/xlink" viewBox="0 0 956.22 52.42"><defs><style>.cls-1{fill:url(#未命名的渐变_8);}.cls-2,.cls-28{opacity:0.96;}.cls-2{fill:url(#未命名的渐变_8-2);}.cls-29,.cls-3{opacity:0.93;}.cls-3{fill:url(#未命名的渐变_8-3);}.cls-30,.cls-4{opacity:0.89;}.cls-4{fill:url(#未命名的渐变_8-4);}.cls-31,.cls-5{opacity:0.86;}.cls-5{fill:url(#未命名的渐变_8-5);}.cls-32,.cls-6{opacity:0.82;}.cls-6{fill:url(#未命名的渐变_8-6);}.cls-33,.cls-7{opacity:0.78;}.cls-7{fill:url(#未命名的渐变_8-7);}.cls-34,.cls-8{opacity:0.75;}.cls-8{fill:url(#未命名的渐变_8-8);}.cls-35,.cls-9{opacity:0.71;}.cls-9{fill:url(#未命名的渐变_8-9);}.cls-10,.cls-36{opacity:0.68;}.cls-10{fill:url(#未命名的渐变_8-10);}.cls-11,.cls-37{opacity:0.64;}.cls-11{fill:url(#未命名的渐变_8-11);}.cls-12,.cls-38{opacity:0.6;}.cls-12{fill:url(#未命名的渐变_8-12);}.cls-13,.cls-39{opacity:0.57;}.cls-13{fill:url(#未命名的渐变_8-13);}.cls-14,.cls-40{opacity:0.53;}.cls-14{fill:url(#未命名的渐变_8-14);}.cls-15,.cls-41{opacity:0.5;}.cls-15{fill:url(#未命名的渐变_8-15);}.cls-16,.cls-42{opacity:0.46;}.cls-16{fill:url(#未命名的渐变_8-16);}.cls-17,.cls-43{opacity:0.42;}.cls-17{fill:url(#未命名的渐变_8-17);}.cls-18,.cls-44{opacity:0.39;}.cls-18{fill:url(#未命名的渐变_8-18);}.cls-19,.cls-45{opacity:0.35;}.cls-19{fill:url(#未命名的渐变_8-19);}.cls-20,.cls-46{opacity:0.32;}.cls-20{fill:url(#未命名的渐变_8-20);}.cls-21,.cls-47{opacity:0.28;}.cls-21{fill:url(#未命名的渐变_8-21);}.cls-22,.cls-48{opacity:0.24;}.cls-22{fill:url(#未命名的渐变_8-22);}.cls-23,.cls-49{opacity:0.21;}.cls-23{fill:url(#未命名的渐变_8-23);}.cls-24,.cls-50{opacity:0.17;}.cls-24{fill:url(#未命名的渐变_8-24);}.cls-25,.cls-51{opacity:0.14;}.cls-25{fill:url(#未命名的渐变_8-25);}.cls-26,.cls-52{opacity:0.1;}.cls-26{fill:url(#未命名的渐变_8-26);}.cls-27{fill:url(#未命名的渐变_8-27);}.cls-28{fill:url(#未命名的渐变_8-28);}.cls-29{fill:url(#未命名的渐变_8-29);}.cls-30{fill:url(#未命名的渐变_8-30);}.cls-31{fill:url(#未命名的渐变_8-31);}.cls-32{fill:url(#未命名的渐变_8-32);}.cls-33{fill:url(#未命名的渐变_8-33);}.cls-34{fill:url(#未命名的渐变_8-34);}.cls-35{fill:url(#未命名的渐变_8-35);}.cls-36{fill:url(#未命名的渐变_8-36);}.cls-37{fill:url(#未命名的渐变_8-37);}.cls-38{fill:url(#未命名的渐变_8-38);}.cls-39{fill:url(#未命名的渐变_8-39);}.cls-40{fill:url(#未命名的渐变_8-40);}.cls-41{fill:url(#未命名的渐变_8-41);}.cls-42{fill:url(#未命名的渐变_8-42);}.cls-43{fill:url(#未命名的渐变_8-43);}.cls-44{fill:url(#未命名的渐变_8-44);}.cls-45{fill:url(#未命名的渐变_8-45);}.cls-46{fill:url(#未命名的渐变_8-46);}.cls-47{fill:url(#未命名的渐变_8-47);}.cls-48{fill:url(#未命名的渐变_8-48);}.cls-49{fill:url(#未命名的渐变_8-49);}.cls-50{fill:url(#未命名的渐变_8-50);}.cls-51{fill:url(#未命名的渐变_8-51);}.cls-52{fill:url(#未命名的渐变_8-52);}.cls-53,.cls-54{opacity:0.8;}.cls-53{fill:url(#未命名的渐变_8-53);}.cls-54{fill:url(#未命名的渐变_8-54);}</style><radialGradient id="未命名的渐变_8" cx="81.68" cy="45.52" r="8.43" gradientTransform="matrix(-1, 0, 0, 1, 379.84, 0)" gradientUnits="userSpaceOnUse"><stop offset="0" stop-color="#4a5372"/><stop offset="1" stop-color="#2f3d57"/></radialGradient><radialGradient id="未命名的渐变_8-2" cx="93.21" cy="45.52" r="8.43" xlink:href="#未命名的渐变_8"/><radialGradient id="未命名的渐变_8-3" cx="104.75" cy="45.52" r="8.43" xlink:href="#未命名的渐变_8"/><radialGradient id="未命名的渐变_8-4" cx="116.29" cy="45.52" r="8.43" xlink:href="#未命名的渐变_8"/><radialGradient id="未命名的渐变_8-5" cx="127.82" cy="45.52" r="8.43" xlink:href="#未命名的渐变_8"/><radialGradient id="未命名的渐变_8-6" cx="139.36" cy="45.52" r="8.43" xlink:href="#未命名的渐变_8"/><radialGradient id="未命名的渐变_8-7" cx="150.89" cy="45.52" r="8.43" xlink:href="#未命名的渐变_8"/><radialGradient id="未命名的渐变_8-8" cx="162.43" cy="45.52" r="8.43" xlink:href="#未命名的渐变_8"/><radialGradient id="未命名的渐变_8-9" cx="173.96" cy="45.52" r="8.43" xlink:href="#未命名的渐变_8"/><radialGradient id="未命名的渐变_8-10" cx="185.5" cy="45.52" r="8.43" xlink:href="#未命名的渐变_8"/><radialGradient id="未命名的渐变_8-11" cx="197.03" cy="45.52" r="8.43" xlink:href="#未命名的渐变_8"/><radialGradient id="未命名的渐变_8-12" cx="208.57" cy="45.52" r="8.43" xlink:href="#未命名的渐变_8"/><radialGradient id="未命名的渐变_8-13" cx="220.1" cy="45.52" r="8.43" xlink:href="#未命名的渐变_8"/><radialGradient id="未命名的渐变_8-14" cx="231.64" cy="45.52" r="8.43" xlink:href="#未命名的渐变_8"/><radialGradient id="未命名的渐变_8-15" cx="243.17" cy="45.52" r="8.43" xlink:href="#未命名的渐变_8"/><radialGradient id="未命名的渐变_8-16" cx="254.71" cy="45.52" r="8.43" xlink:href="#未命名的渐变_8"/><radialGradient id="未命名的渐变_8-17" cx="266.24" cy="45.52" r="8.43" xlink:href="#未命名的渐变_8"/><radialGradient id="未命名的渐变_8-18" cx="277.78" cy="45.52" r="8.43" xlink:href="#未命名的渐变_8"/><radialGradient id="未命名的渐变_8-19" cx="289.31" cy="45.52" r="8.43" xlink:href="#未命名的渐变_8"/><radialGradient id="未命名的渐变_8-20" cx="300.85" cy="45.52" r="8.43" xlink:href="#未命名的渐变_8"/><radialGradient id="未命名的渐变_8-21" cx="312.38" cy="45.52" r="8.43" xlink:href="#未命名的渐变_8"/><radialGradient id="未命名的渐变_8-22" cx="323.92" cy="45.52" r="8.43" xlink:href="#未命名的渐变_8"/><radialGradient id="未命名的渐变_8-23" cx="335.45" cy="45.52" r="8.43" xlink:href="#未命名的渐变_8"/><radialGradient id="未命名的渐变_8-24" cx="346.99" cy="45.52" r="8.43" xlink:href="#未命名的渐变_8"/><radialGradient id="未命名的渐变_8-25" cx="358.52" cy="45.52" r="8.43" xlink:href="#未命名的渐变_8"/><radialGradient id="未命名的渐变_8-26" cx="370.06" cy="45.52" r="8.43" xlink:href="#未命名的渐变_8"/><radialGradient id="未命名的渐变_8-27" cx="-426.25" cy="45.52" r="8.43" gradientTransform="translate(1084.1)" xlink:href="#未命名的渐变_8"/><radialGradient id="未命名的渐变_8-28" cx="-414.71" cy="45.52" r="8.43" gradientTransform="translate(1084.1)" xlink:href="#未命名的渐变_8"/><radialGradient id="未命名的渐变_8-29" cx="-403.18" cy="45.52" r="8.43" gradientTransform="translate(1084.1)" xlink:href="#未命名的渐变_8"/><radialGradient id="未命名的渐变_8-30" cx="-391.64" cy="45.52" r="8.43" gradientTransform="translate(1084.1)" xlink:href="#未命名的渐变_8"/><radialGradient id="未命名的渐变_8-31" cx="-380.11" cy="45.52" r="8.43" gradientTransform="translate(1084.1)" xlink:href="#未命名的渐变_8"/><radialGradient id="未命名的渐变_8-32" cx="-368.57" cy="45.52" r="8.43" gradientTransform="translate(1084.1)" xlink:href="#未命名的渐变_8"/><radialGradient id="未命名的渐变_8-33" cx="-357.04" cy="45.52" r="8.43" gradientTransform="translate(1084.1)" xlink:href="#未命名的渐变_8"/><radialGradient id="未命名的渐变_8-34" cx="-345.5" cy="45.52" r="8.43" gradientTransform="translate(1084.1)" xlink:href="#未命名的渐变_8"/><radialGradient id="未命名的渐变_8-35" cx="-333.97" cy="45.52" r="8.43" gradientTransform="translate(1084.1)" xlink:href="#未命名的渐变_8"/><radialGradient id="未命名的渐变_8-36" cx="-322.43" cy="45.52" r="8.43" gradientTransform="translate(1084.1)" xlink:href="#未命名的渐变_8"/><radialGradient id="未命名的渐变_8-37" cx="-310.9" cy="45.52" r="8.43" gradientTransform="translate(1084.1)" xlink:href="#未命名的渐变_8"/><radialGradient id="未命名的渐变_8-38" cx="-299.36" cy="45.52" r="8.43" gradientTransform="translate(1084.1)" xlink:href="#未命名的渐变_8"/><radialGradient id="未命名的渐变_8-39" cx="-287.83" cy="45.52" r="8.43" gradientTransform="translate(1084.1)" xlink:href="#未命名的渐变_8"/><radialGradient id="未命名的渐变_8-40" cx="-276.29" cy="45.52" r="8.43" gradientTransform="translate(1084.1)" xlink:href="#未命名的渐变_8"/><radialGradient id="未命名的渐变_8-41" cx="-264.76" cy="45.52" r="8.43" gradientTransform="translate(1084.1)" xlink:href="#未命名的渐变_8"/><radialGradient id="未命名的渐变_8-42" cx="-253.22" cy="45.52" r="8.43" gradientTransform="translate(1084.1)" xlink:href="#未命名的渐变_8"/><radialGradient id="未命名的渐变_8-43" cx="-241.69" cy="45.52" r="8.43" gradientTransform="translate(1084.1)" xlink:href="#未命名的渐变_8"/><radialGradient id="未命名的渐变_8-44" cx="-230.15" cy="45.52" r="8.43" gradientTransform="translate(1084.1)" xlink:href="#未命名的渐变_8"/><radialGradient id="未命名的渐变_8-45" cx="-218.61" cy="45.52" r="8.43" gradientTransform="translate(1084.1)" xlink:href="#未命名的渐变_8"/><radialGradient id="未命名的渐变_8-46" cx="-207.08" cy="45.52" r="8.43" gradientTransform="translate(1084.1)" xlink:href="#未命名的渐变_8"/><radialGradient id="未命名的渐变_8-47" cx="-195.54" cy="45.52" r="8.43" gradientTransform="translate(1084.1)" xlink:href="#未命名的渐变_8"/><radialGradient id="未命名的渐变_8-48" cx="-184.01" cy="45.52" r="8.43" gradientTransform="translate(1084.1)" xlink:href="#未命名的渐变_8"/><radialGradient id="未命名的渐变_8-49" cx="-172.47" cy="45.52" r="8.43" gradientTransform="translate(1084.1)" xlink:href="#未命名的渐变_8"/><radialGradient id="未命名的渐变_8-50" cx="-160.94" cy="45.52" r="8.43" gradientTransform="translate(1084.1)" xlink:href="#未命名的渐变_8"/><radialGradient id="未命名的渐变_8-51" cx="-149.4" cy="45.52" r="8.43" gradientTransform="translate(1084.1)" xlink:href="#未命名的渐变_8"/><radialGradient id="未命名的渐变_8-52" cx="-137.87" cy="45.52" r="8.43" gradientTransform="translate(1084.1)" xlink:href="#未命名的渐变_8"/><radialGradient id="未命名的渐变_8-53" cx="478.01" cy="28.09" r="338.4" gradientTransform="matrix(1, 0, 0, 1, 0, 0)" xlink:href="#未命名的渐变_8"/><radialGradient id="未命名的渐变_8-54" cx="478.11" cy="1" r="338.08" gradientTransform="matrix(1, 0, 0, 1, 0, 0)" xlink:href="#未命名的渐变_8"/></defs><title>版头</title><g id="图层_2" data-name="图层 2"><g id="图层_1-2" data-name="图层 1"><polygon class="cls-1" points="302.23 52.42 288.44 38.63 294.09 38.63 307.88 52.42 302.23 52.42"/><polygon class="cls-2" points="290.69 52.42 276.9 38.63 282.56 38.63 296.35 52.42 290.69 52.42"/><polygon class="cls-3" points="279.15 52.42 265.37 38.63 271.02 38.63 284.81 52.42 279.15 52.42"/><polygon class="cls-4" points="267.62 52.42 253.83 38.63 259.49 38.63 273.27 52.42 267.62 52.42"/><polygon class="cls-5" points="256.08 52.42 242.3 38.63 247.95 38.63 261.74 52.42 256.08 52.42"/><polygon class="cls-6" points="244.55 52.42 230.76 38.63 236.42 38.63 250.21 52.42 244.55 52.42"/><polygon class="cls-7" points="233.01 52.42 219.23 38.63 224.88 38.63 238.67 52.42 233.01 52.42"/><polygon class="cls-8" points="221.48 52.42 207.69 38.63 213.35 38.63 227.13 52.42 221.48 52.42"/><polygon class="cls-9" points="209.94 52.42 196.16 38.63 201.81 38.63 215.6 52.42 209.94 52.42"/><polygon class="cls-10" points="198.41 52.42 184.62 38.63 190.28 38.63 204.06 52.42 198.41 52.42"/><polygon class="cls-11" points="186.87 52.42 173.09 38.63 178.74 38.63 192.53 52.42 186.87 52.42"/><polygon class="cls-12" points="175.34 52.42 161.55 38.63 167.21 38.63 180.99 52.42 175.34 52.42"/><polygon class="cls-13" points="163.8 52.42 150.02 38.63 155.67 38.63 169.46 52.42 163.8 52.42"/><polygon class="cls-14" points="152.27 52.42 138.48 38.63 144.14 38.63 157.92 52.42 152.27 52.42"/><polygon class="cls-15" points="140.73 52.42 126.94 38.63 132.6 38.63 146.39 52.42 140.73 52.42"/><polygon class="cls-16" points="129.2 52.42 115.41 38.63 121.07 38.63 134.85 52.42 129.2 52.42"/><polygon class="cls-17" points="117.66 52.42 103.88 38.63 109.53 38.63 123.32 52.42 117.66 52.42"/><polygon class="cls-18" points="106.13 52.42 92.34 38.63 98 38.63 111.78 52.42 106.13 52.42"/><polygon class="cls-19" points="94.59 52.42 80.81 38.63 86.46 38.63 100.25 52.42 94.59 52.42"/><polygon class="cls-20" points="83.06 52.42 69.27 38.63 74.93 38.63 88.71 52.42 83.06 52.42"/><polygon class="cls-21" points="71.52 52.42 57.73 38.63 63.39 38.63 77.18 52.42 71.52 52.42"/><polygon class="cls-22" points="59.99 52.42 46.2 38.63 51.85 38.63 65.64 52.42 59.99 52.42"/><polygon class="cls-23" points="48.45 52.42 34.66 38.63 40.32 38.63 54.11 52.42 48.45 52.42"/><polygon class="cls-24" points="36.92 52.42 23.13 38.63 28.79 38.63 42.57 52.42 36.92 52.42"/><polygon class="cls-25" points="25.38 52.42 11.59 38.63 17.25 38.63 31.04 52.42 25.38 52.42"/><polygon class="cls-26" points="13.85 52.42 0.06 38.63 5.71 38.63 19.5 52.42 13.85 52.42"/><polygon class="cls-27" points="653.79 52.42 667.58 38.63 661.92 38.63 648.13 52.42 653.79 52.42"/><polygon class="cls-28" points="665.32 52.42 679.11 38.63 673.45 38.63 659.67 52.42 665.32 52.42"/><polygon class="cls-29" points="676.86 52.42 690.64 38.63 684.99 38.63 671.2 52.42 676.86 52.42"/><polygon class="cls-30" points="688.39 52.42 702.18 38.63 696.52 38.63 682.74 52.42 688.39 52.42"/><polygon class="cls-31" points="699.93 52.42 713.72 38.63 708.06 38.63 694.27 52.42 699.93 52.42"/><polygon class="cls-32" points="711.46 52.42 725.25 38.63 719.59 38.63 705.81 52.42 711.46 52.42"/><polygon class="cls-33" points="723 52.42 736.79 38.63 731.13 38.63 717.34 52.42 723 52.42"/><polygon class="cls-34" points="734.53 52.42 748.32 38.63 742.66 38.63 728.88 52.42 734.53 52.42"/><polygon class="cls-35" points="746.07 52.42 759.86 38.63 754.2 38.63 740.41 52.42 746.07 52.42"/><polygon class="cls-36" points="757.6 52.42 771.39 38.63 765.74 38.63 751.95 52.42 757.6 52.42"/><polygon class="cls-37" points="769.14 52.42 782.93 38.63 777.27 38.63 763.48 52.42 769.14 52.42"/><polygon class="cls-38" points="780.67 52.42 794.46 38.63 788.8 38.63 775.02 52.42 780.67 52.42"/><polygon class="cls-39" points="792.21 52.42 806 38.63 800.34 38.63 786.55 52.42 792.21 52.42"/><polygon class="cls-40" points="803.75 52.42 817.53 38.63 811.88 38.63 798.09 52.42 803.75 52.42"/><polygon class="cls-41" points="815.28 52.42 829.07 38.63 823.41 38.63 809.62 52.42 815.28 52.42"/><polygon class="cls-42" points="826.82 52.42 840.6 38.63 834.95 38.63 821.16 52.42 826.82 52.42"/><polygon class="cls-43" points="838.35 52.42 852.14 38.63 846.48 38.63 832.69 52.42 838.35 52.42"/><polygon class="cls-44" points="849.88 52.42 863.67 38.63 858.02 38.63 844.23 52.42 849.88 52.42"/><polygon class="cls-45" points="861.42 52.42 875.21 38.63 869.55 38.63 855.76 52.42 861.42 52.42"/><polygon class="cls-46" points="872.96 52.42 886.74 38.63 881.09 38.63 867.3 52.42 872.96 52.42"/><polygon class="cls-47" points="884.49 52.42 898.28 38.63 892.62 38.63 878.83 52.42 884.49 52.42"/><polygon class="cls-48" points="896.03 52.42 909.81 38.63 904.16 38.63 890.37 52.42 896.03 52.42"/><polygon class="cls-49" points="907.56 52.42 921.35 38.63 915.69 38.63 901.9 52.42 907.56 52.42"/><polygon class="cls-50" points="919.1 52.42 932.88 38.63 927.23 38.63 913.44 52.42 919.1 52.42"/><polygon class="cls-51" points="930.63 52.42 944.42 38.63 938.76 38.63 924.98 52.42 930.63 52.42"/><polygon class="cls-52" points="942.17 52.42 955.95 38.63 950.3 38.63 936.51 52.42 942.17 52.42"/><polygon class="cls-53" points="0.06 3.75 0.06 35.75 296.12 35.75 312.79 52.42 522.12 52.42 643.12 52.42 659.79 35.75 955.95 35.75 955.95 3.75 0.06 3.75"/><rect class="cls-54" width="956.22" height="2"/></g></g></svg>